<?xml version="1.0" encoding="utf-8"?>
<!-- Generator: Adobe Illustrator 22.0.1, SVG Export Plug-In . SVG Version: 6.00 Build 0)  -->
<svg version="1.1"
	 id="svg263522" xmlns:cc="http://creativecommons.org/ns#" xmlns:dc="http://purl.org/dc/elements/1.1/" xmlns:rdf="http://www.w3.org/1999/02/22-rdf-syntax-ns#" xmlns:svg="http://www.w3.org/2000/svg"
	 xmlns="http://www.w3.org/2000/svg" xmlns:xlink="http://www.w3.org/1999/xlink" x="0px" y="0px" viewBox="0 0 486.4 149"
	 style="enable-background:new 0 0 486.4 149;" xml:space="preserve">
<style type="text/css">
	.st0{fill:#2B2A5C;}
</style>
<g id="logo-group">
	<g id="logo-center" transform="translate(283.0566732 0)">
		
			<image style="overflow:visible;enable-background:new    ;" width="200" height="200" id="icon" xlink:href="F87A4E15.png"  transform="matrix(0.5325 0 0 0.5325 -280.3984 22.0901)">
		</image>
		<g id="title">
			<path id="path263530" class="st0" d="M-119.4,108.9c1.7,0,3.1-0.6,4.3-1.8c1.2-1.2,1.7-2.6,1.7-4.3V72.6c0-8.3-3-15.4-8.7-21.3
				c-5.9-5.9-13.1-8.9-21.4-8.9c-8.4,0-15.5,3-21.4,8.9c-5.9,5.9-8.9,13-8.9,21.3v30.3c0,1.7,0.6,3.1,1.8,4.3s2.6,1.7,4.1,1.7
				c1.7,0,3.1-0.5,4.3-1.7s1.7-2.6,1.7-4.3V72.6c0-5,1.9-9.3,5.4-12.9c3.5-3.7,7.9-5.4,13-5.4s9.3,1.8,13,5.4
				c3.5,3.5,5.3,7.9,5.3,12.9V103c0,1.5,0.6,3,1.8,4.1C-122.3,108.3-120.9,108.9-119.4,108.9L-119.4,108.9z"/>
			<path id="path263532" class="st0" d="M-66.4,109.1c9.1,0,16.8-3.2,23.1-9.6s9.7-14.1,9.7-23.1s-3.3-16.8-9.7-23.1
				s-14.1-9.7-23.1-9.7s-16.8,3.3-23.1,9.7s-9.6,14.1-9.6,23.1s3.2,16.8,9.6,23.1C-83.1,105.9-75.5,109.1-66.4,109.1z M-66.4,54.9
				c5.9,0,11,2.1,15.2,6.3c4.1,4.3,6.3,9.3,6.3,15.2s-2.1,11-6.3,15.1c-4.3,4.3-9.3,6.3-15.2,6.3c-5.9,0-11-2-15.1-6.3
				c-4.3-4.1-6.3-9.2-6.3-15.1s2-11,6.3-15.2C-77.4,57-72.3,54.9-66.4,54.9z"/>
			<path id="path263534" class="st0" d="M9,96.8c-3.4,0-6.4-1.2-8.7-3.7c-2.5-2.4-3.7-5.3-3.7-8.7V56.6H7.1c1.4,0,2.7-0.5,3.8-1.5
				c0.9-0.9,1.5-2.2,1.5-3.8c0-1.4-0.6-2.7-1.5-3.8C9.8,46.6,8.5,46,7.1,46H-3.4V29.4c0-1.7-0.6-3-1.8-4.1c-1.2-1.2-2.5-1.8-4.1-1.8
				s-3.1,0.6-4.3,1.8c-1.2,1.2-1.7,2.5-1.7,4.1v55c0,6.7,2.4,12.4,7.1,17.1s10.4,7.1,17.1,7.1c1.7,0,3-0.5,4.1-1.7
				c1.2-1.2,1.8-2.6,1.8-4.3s-0.6-3-1.8-4.1C11.9,97.4,10.6,96.8,9,96.8L9,96.8z"/>
			<path id="path263536" class="st0" d="M54.9,109.1c7.8,0,14.6-2.4,20.7-7.3c1.3-0.9,1.9-2.2,2.1-3.8c0.1-1.7-0.2-3-1.3-4.3
				c-0.9-1.2-2.2-1.9-3.8-2c-1.5-0.1-3,0.2-4.1,1.3c-4,3.2-8.5,4.7-13.6,4.7c-5.9,0-11-2-15.1-6.3c-4.3-4.1-6.3-9.2-6.3-15.1
				c0-5.9,2-11,6.3-15.2c4.1-4.1,9.2-6.3,15.1-6.3c4.8,0,9.2,1.5,13.1,4.5c3.8,3,6.3,6.7,7.6,11.3H54.9c-1.5,0-3,0.6-4,1.7
				c-1.1,1.1-1.7,2.5-1.7,4s0.6,3,1.7,4c1.1,1.1,2.5,1.7,4,1.7H82c1.5,0,2.8-0.6,3.9-1.7c1.2-1.1,1.8-2.5,1.8-4
				c0-9.1-3.3-16.8-9.7-23.1S64,43.5,54.9,43.5s-16.8,3.3-23.1,9.7s-9.6,14.1-9.6,23.1s3.2,16.8,9.6,23.1
				C38.1,105.9,45.8,109.1,54.9,109.1L54.9,109.1z"/>
			<path id="path263538" class="st0" d="M123.7,27.7c1.7,0,3-0.5,4.1-1.7c1.2-1.2,1.8-2.6,1.8-4.3c0-1.7-0.6-3-1.8-4.1
				c-1.2-1.2-2.5-1.8-4.1-1.8c-6.7,0-12.4,2.4-17.1,7.1s-7.1,10.5-7.1,17.1v62.8c0,1.7,0.5,3.1,1.7,4.3c1.2,1.2,2.6,1.7,4.3,1.7
				s3-0.5,4.1-1.7c1.2-1.2,1.8-2.6,1.8-4.3V56.7h11.8c1.4,0,2.7-0.5,3.8-1.5c0.9-0.9,1.5-2.2,1.5-3.8c0-1.4-0.6-2.7-1.5-3.8
				c-1.1-0.9-2.4-1.5-3.8-1.5h-11.8v-6c0-3.3,1.2-6.3,3.7-8.7C117.4,29,120.3,27.7,123.7,27.7z"/>
			<path id="path263540" class="st0" d="M192.4,49.2c0-2.1-1.3-3.7-3.7-4.6c-0.9-0.4-1.9-0.6-2.8-0.6c-2.1,0-3.7,1.2-4.6,3.4
				l-19,42.9l-21.6-43c-1.2-2.1-2.8-3.3-5-3.3c-0.9,0-1.7,0.2-2.4,0.5c-1.1,0.5-1.9,1.2-2.5,2c-0.7,0.9-0.9,1.9-0.9,2.8
				c0,0.9,0.1,1.8,0.6,2.5l26.6,50.4l-11.8,26.6c-0.5,0.9-0.7,1.9-0.7,2.8c0,2.1,1.2,3.7,3.5,4.6c1.1,0.5,2,0.7,2.8,0.7
				c2.1,0,3.7-1.2,4.6-3.7L191.7,52C192.2,51,192.4,50,192.4,49.2L192.4,49.2z"/>
		</g>
		<g id="tagline">
		</g>
	</g>
</g>
</svg>
